<?xml version="1.0" encoding="UTF-8"?>
<!DOCTYPE svg PUBLIC "-//W3C//DTD SVG 1.1//EN" "http://www.w3.org/Graphics/SVG/1.1/DTD/svg11.dtd">
<svg version="1.2" width="210mm" height="297mm" viewBox="0 0 21000 29700" preserveAspectRatio="xMidYMid" fill-rule="evenodd" stroke-width="28.222" stroke-linejoin="round" xmlns="http://www.w3.org/2000/svg" xmlns:ooo="http://xml.openoffice.org/svg/export" xmlns:xlink="http://www.w3.org/1999/xlink" xmlns:presentation="http://sun.com/xmlns/staroffice/presentation" xmlns:smil="http://www.w3.org/2001/SMIL20/" xmlns:anim="urn:oasis:names:tc:opendocument:xmlns:animation:1.0" xml:space="preserve">
 <defs class="ClipPathGroup">
  <clipPath id="presentation_clip_path" clipPathUnits="userSpaceOnUse">
   <rect x="0" y="0" width="21000" height="29700"/>
  </clipPath>
 </defs>
 <defs class="TextShapeIndex">
  <g ooo:slide="id1" ooo:id-list="id3 id4 id5 id6 id7 id8 id9 id10 id11 id12 id13 id14 id15 id16 id17 id18 id19 id20 id21 id22 id23 id24 id25 id26 id27 id28 id29 id30 id31 id32 id33 id34 id35 id36 id37 id38 id39 id40 id41 id42 id43 id44 id45 id46 id47 id48 id49 id50 id51 id52 id53 id54 id55"/>
 </defs>
 <defs class="EmbeddedBulletChars">
  <g id="bullet-char-template(57356)" transform="scale(0.00048828125,-0.00048828125)">
   <path d="M 580,1141 L 1163,571 580,0 -4,571 580,1141 Z"/>
  </g>
  <g id="bullet-char-template(57354)" transform="scale(0.00048828125,-0.00048828125)">
   <path d="M 8,1128 L 1137,1128 1137,0 8,0 8,1128 Z"/>
  </g>
  <g id="bullet-char-template(10146)" transform="scale(0.00048828125,-0.00048828125)">
   <path d="M 174,0 L 602,739 174,1481 1456,739 174,0 Z M 1358,739 L 309,1346 659,739 1358,739 Z"/>
  </g>
  <g id="bullet-char-template(10132)" transform="scale(0.00048828125,-0.00048828125)">
   <path d="M 2015,739 L 1276,0 717,0 1260,543 174,543 174,936 1260,936 717,1481 1274,1481 2015,739 Z"/>
  </g>
  <g id="bullet-char-template(10007)" transform="scale(0.00048828125,-0.00048828125)">
   <path d="M 0,-2 C -7,14 -16,27 -25,37 L 356,567 C 262,823 215,952 215,954 215,979 228,992 255,992 264,992 276,990 289,987 310,991 331,999 354,1012 L 381,999 492,748 772,1049 836,1024 860,1049 C 881,1039 901,1025 922,1006 886,937 835,863 770,784 769,783 710,716 594,584 L 774,223 C 774,196 753,168 711,139 L 727,119 C 717,90 699,76 672,76 641,76 570,178 457,381 L 164,-76 C 142,-110 111,-127 72,-127 30,-127 9,-110 8,-76 1,-67 -2,-52 -2,-32 -2,-23 -1,-13 0,-2 Z"/>
  </g>
  <g id="bullet-char-template(10004)" transform="scale(0.00048828125,-0.00048828125)">
   <path d="M 285,-33 C 182,-33 111,30 74,156 52,228 41,333 41,471 41,549 55,616 82,672 116,743 169,778 240,778 293,778 328,747 346,684 L 369,508 C 377,444 397,411 428,410 L 1163,1116 C 1174,1127 1196,1133 1229,1133 1271,1133 1292,1118 1292,1087 L 1292,965 C 1292,929 1282,901 1262,881 L 442,47 C 390,-6 338,-33 285,-33 Z"/>
  </g>
  <g id="bullet-char-template(9679)" transform="scale(0.00048828125,-0.00048828125)">
   <path d="M 813,0 C 632,0 489,54 383,161 276,268 223,411 223,592 223,773 276,916 383,1023 489,1130 632,1184 813,1184 992,1184 1136,1130 1245,1023 1353,916 1407,772 1407,592 1407,412 1353,268 1245,161 1136,54 992,0 813,0 Z"/>
  </g>
  <g id="bullet-char-template(8226)" transform="scale(0.00048828125,-0.00048828125)">
   <path d="M 346,457 C 273,457 209,483 155,535 101,586 74,649 74,723 74,796 101,859 155,911 209,963 273,989 346,989 419,989 480,963 531,910 582,859 608,796 608,723 608,648 583,586 532,535 482,483 420,457 346,457 Z"/>
  </g>
  <g id="bullet-char-template(8211)" transform="scale(0.00048828125,-0.00048828125)">
   <path d="M -4,459 L 1135,459 1135,606 -4,606 -4,459 Z"/>
  </g>
 </defs>
 <defs class="TextEmbeddedBitmaps"/>
 <g>
  <g id="id2" class="Master_Slide">
   <g id="bg-id2" class="Background"/>
   <g id="bo-id2" class="BackgroundObjects"/>
  </g>
 </g>
 <g class="SlideGroup">
  <g>
   <g id="id1" class="Slide" clip-path="url(#presentation_clip_path)">
    <g class="Page">
     <g class="com.sun.star.drawing.ClosedBezierShape">
      <g id="id3">
       <rect class="BoundingBox" stroke="none" fill="none" x="25" y="20993" width="20661" height="2487"/>
       <path fill="rgb(199,199,216)" stroke="none" d="M 20685,22237 C 20685,22924 16060,23479 10358,23479 4653,23479 25,22924 25,22237 25,21548 4653,20993 10358,20993 16060,20993 20685,21548 20685,22237 Z"/>
      </g>
     </g>
     <g class="com.sun.star.drawing.ClosedBezierShape">
      <g id="id4">
       <rect class="BoundingBox" stroke="none" fill="none" x="13953" y="15619" width="2499" height="6197"/>
       <path fill="rgb(150,102,66)" stroke="none" d="M 14011,18927 L 14480,21715 C 14480,21715 15810,21950 16335,21698 16335,21698 16487,21715 16442,21524 16442,21524 16310,21113 15816,21066 15816,21066 15603,20993 15647,20538 15647,20538 16425,17189 16411,15933 L 16321,15619 C 16321,15619 13517,17251 14011,18927 Z"/>
      </g>
     </g>
     <g class="com.sun.star.drawing.ClosedBezierShape">
      <g id="id5">
       <rect class="BoundingBox" stroke="none" fill="none" x="14474" y="20699" width="2005" height="1117"/>
       <path fill="rgb(183,127,85)" stroke="none" d="M 15642,20699 C 15642,20699 14730,20658 14582,21524 L 14475,21712 C 14475,21712 15491,21941 16268,21715 16268,21715 16566,21732 16451,21421 16451,21421 16352,20987 15822,21040 15822,21040 15648,21078 15642,20699 Z"/>
      </g>
     </g>
     <g class="com.sun.star.drawing.ClosedBezierShape">
      <g id="id6">
       <rect class="BoundingBox" stroke="none" fill="none" x="5048" y="6734" width="12133" height="15175"/>
       <path fill="rgb(168,113,68)" stroke="none" d="M 17164,12543 C 17164,12543 17122,11603 16844,10955 16844,10955 16752,10042 17111,9393 17111,9393 12306,6631 11897,6737 11897,6737 11594,7970 12031,9285 12031,9285 12141,10644 11091,11222 11091,11222 7878,12804 7558,13179 7558,13179 4842,15093 5061,17808 5061,17808 5204,21345 8198,21908 L 11136,21806 C 11136,21806 11170,20769 9520,20045 9520,20045 10839,19848 11453,19719 11594,20059 11700,20403 11664,20614 L 12921,20585 12837,19361 C 13698,19082 14605,18677 15205,18099 15205,18099 17383,15803 17164,12543 Z"/>
      </g>
     </g>
     <g class="com.sun.star.drawing.ClosedBezierShape">
      <g id="id7">
       <rect class="BoundingBox" stroke="none" fill="none" x="11480" y="20418" width="1747" height="1659"/>
       <path fill="rgb(183,127,85)" stroke="none" d="M 11656,20614 L 11625,21306 C 11625,21306 11347,21632 11561,22040 L 11642,22043 13124,22075 C 13124,22075 13396,21574 13048,21274 L 12913,20584 C 12913,20584 11880,20191 11656,20614 Z"/>
      </g>
     </g>
     <g class="com.sun.star.drawing.ClosedBezierShape">
      <g id="id8">
       <rect class="BoundingBox" stroke="none" fill="none" x="8037" y="20685" width="3383" height="1260"/>
       <path fill="rgb(183,127,85)" stroke="none" d="M 8133,21688 C 8228,21635 9833,20203 11012,20855 11012,20855 11545,21180 11391,21817 L 11380,21944 8138,21926 C 8138,21926 7914,21817 8133,21688 Z"/>
      </g>
     </g>
     <g class="com.sun.star.drawing.ClosedBezierShape">
      <g id="id9">
       <rect class="BoundingBox" stroke="none" fill="none" x="16753" y="2637" width="1620" height="2493"/>
       <path fill="rgb(226,183,150)" stroke="none" d="M 16753,3858 C 16798,3840 18086,2666 18280,2637 L 18372,2760 C 18372,2760 17934,4829 17651,5129 L 16812,4263 16753,3858 Z"/>
      </g>
     </g>
     <g class="com.sun.star.drawing.PolyPolygonShape">
      <g id="id10">
       <rect class="BoundingBox" stroke="none" fill="none" x="10630" y="2975" width="1909" height="3162"/>
       <path fill="rgb(226,183,150)" stroke="none" d="M 11026,2975 L 10630,3183 11525,6136 12538,3908 11026,2975 Z"/>
      </g>
     </g>
     <g class="com.sun.star.drawing.ClosedBezierShape">
      <g id="id11">
       <rect class="BoundingBox" stroke="none" fill="none" x="11101" y="3356" width="7481" height="6963"/>
       <path fill="rgb(168,113,68)" stroke="none" d="M 12550,3722 C 13917,3431 15721,2994 16821,3892 17559,4491 17899,5471 18202,6393 18432,7091 18811,7819 18393,8415 17848,9193 16656,10079 16021,10261 15387,10446 15196,10126 14545,10047 13577,9930 13058,9572 12261,8985 11461,8398 10914,7338 11161,6352 11256,5973 11458,5636 11655,5304 11846,4984 11969,4749 12070,4391 12149,4107 12210,3974 12550,3722 Z"/>
      </g>
     </g>
     <g class="com.sun.star.drawing.ClosedBezierShape">
      <g id="id12">
       <rect class="BoundingBox" stroke="none" fill="none" x="16065" y="2508" width="2354" height="1671"/>
       <path fill="rgb(168,113,68)" stroke="none" d="M 16066,3582 C 16066,3582 17323,2587 18134,2511 18134,2511 18373,2478 18418,2637 18418,2637 17065,3597 16992,4178 16992,4178 16114,4099 16066,3582 Z"/>
      </g>
     </g>
     <g class="com.sun.star.drawing.ClosedBezierShape">
      <g id="id13">
       <rect class="BoundingBox" stroke="none" fill="none" x="17576" y="2637" width="854" height="2654"/>
       <path fill="rgb(168,113,68)" stroke="none" d="M 17775,5290 C 17775,5290 18525,2969 18418,2637 L 18283,2760 C 18283,2760 18070,4501 17638,4909 17638,4909 17430,5258 17775,5290 Z"/>
      </g>
     </g>
     <g class="com.sun.star.drawing.ClosedBezierShape">
      <g id="id14">
       <rect class="BoundingBox" stroke="none" fill="none" x="10554" y="2687" width="2247" height="3167"/>
       <path fill="rgb(168,113,68)" stroke="none" d="M 12275,4238 C 12275,4238 11391,3187 10928,3205 10928,3205 10762,3205 10779,3375 L 11467,5682 11377,5852 10569,3299 C 10569,3299 10403,2483 11183,2735 11183,2735 12499,3320 12800,3760 12800,3760 12384,4191 12275,4238 Z"/>
      </g>
     </g>
     <g class="com.sun.star.drawing.ClosedBezierShape">
      <g id="id15">
       <rect class="BoundingBox" stroke="none" fill="none" x="13153" y="5687" width="1623" height="1227"/>
       <path fill="rgb(233,233,244)" stroke="none" d="M 13246,6165 C 13271,6126 13658,5311 14407,5900 14407,5900 14775,6264 14775,6543 14775,6543 14172,7438 13262,6441 L 13153,6311 13246,6165 Z"/>
      </g>
     </g>
     <g class="com.sun.star.drawing.ClosedBezierShape">
      <g id="id16">
       <rect class="BoundingBox" stroke="none" fill="none" x="13748" y="5700" width="1075" height="1230"/>
       <path fill="rgb(84,50,41)" stroke="none" d="M 14007,5705 C 14007,5705 13381,6263 14075,6920 14075,6920 14467,7020 14821,6521 14821,6521 14591,5632 14007,5705 Z"/>
      </g>
     </g>
     <g class="com.sun.star.drawing.ClosedBezierShape">
      <g id="id17">
       <rect class="BoundingBox" stroke="none" fill="none" x="16579" y="5464" width="1161" height="1059"/>
       <path fill="rgb(233,233,244)" stroke="none" d="M 17652,5765 C 17630,5738 17245,5125 16771,5730 16771,5730 16547,6085 16583,6314 16583,6314 17141,6953 17675,5991 L 17739,5867 17652,5765 Z"/>
      </g>
     </g>
     <g class="com.sun.star.drawing.ClosedBezierShape">
      <g id="id18">
       <rect class="BoundingBox" stroke="none" fill="none" x="16991" y="5452" width="753" height="1030"/>
       <path fill="rgb(84,50,41)" stroke="none" d="M 17091,5486 C 17091,5486 16793,5946 17231,6481 17231,6481 17582,6381 17742,5864 17742,5864 17422,5312 17091,5486 Z"/>
      </g>
     </g>
     <g class="com.sun.star.drawing.ClosedBezierShape">
      <g id="id19">
       <rect class="BoundingBox" stroke="none" fill="none" x="14542" y="6095" width="3023" height="2882"/>
       <path fill="rgb(234,224,220)" stroke="none" d="M 17168,7160 C 17148,7142 17115,7107 16842,6851 16694,6690 16545,6529 16396,6370 16329,6300 16261,6226 16174,6176 16045,6100 15883,6085 15725,6100 15577,6115 15425,6159 15319,6259 15198,6367 15153,6523 15105,6672 14996,7025 14979,7077 14797,7403 14797,7403 14606,7785 14592,7814 14592,7814 14275,8489 15243,8883 15243,8883 16694,9343 17443,8205 17443,8205 17850,7711 17168,7160 Z"/>
      </g>
     </g>
     <g class="com.sun.star.drawing.ClosedBezierShape">
      <g id="id20">
       <rect class="BoundingBox" stroke="none" fill="none" x="15263" y="7116" width="781" height="539"/>
       <path fill="rgb(188,159,150)" stroke="none" d="M 15948,7119 C 15976,7254 15875,7389 15737,7471 15600,7553 15431,7597 15263,7636 15457,7680 15673,7641 15827,7536 15979,7436 16063,7269 16038,7116 L 15948,7119 Z"/>
      </g>
     </g>
     <g class="com.sun.star.drawing.ClosedBezierShape">
      <g id="id21">
       <rect class="BoundingBox" stroke="none" fill="none" x="16007" y="7095" width="812" height="495"/>
       <path fill="rgb(188,159,150)" stroke="none" d="M 16098,7095 C 16081,7230 16191,7356 16337,7430 16480,7500 16651,7529 16817,7553 16631,7615 16412,7594 16253,7503 16090,7412 15994,7253 16008,7095 L 16098,7095 Z"/>
      </g>
     </g>
     <g class="com.sun.star.drawing.ClosedBezierShape">
      <g id="id22">
       <rect class="BoundingBox" stroke="none" fill="none" x="15519" y="6669" width="914" height="495"/>
       <path fill="rgb(247,173,124)" stroke="none" d="M 16431,6826 C 16423,6723 16212,6653 15963,6674 15710,6691 15514,6788 15519,6894 15525,6952 15589,6999 15690,7026 15716,7114 15850,7173 16013,7161 16181,7149 16313,7061 16313,6964 16389,6926 16434,6876 16431,6826 Z"/>
      </g>
     </g>
     <g class="com.sun.star.drawing.ClosedBezierShape">
      <g id="id23">
       <rect class="BoundingBox" stroke="none" fill="none" x="11385" y="8942" width="5927" height="9220"/>
       <path fill="rgb(183,127,85)" stroke="none" d="M 11955,8942 C 12185,9667 11868,10415 11385,10988 12056,11660 12962,12705 13257,13626 13369,13441 13481,13254 13594,13069 14146,13914 14503,14894 14626,15913 L 14854,15402 C 15019,16130 15185,17413 15137,18161 16349,17489 16571,15942 16970,14844 17503,13383 17376,12071 16826,10688 16644,11014 15934,12071 15855,12438 15757,12068 15594,11716 15378,11402 15241,11566 15151,11774 15123,11989 14478,10732 13223,9464 11955,8942 Z"/>
      </g>
     </g>
     <g class="com.sun.star.drawing.ClosedBezierShape">
      <g id="id24">
       <rect class="BoundingBox" stroke="none" fill="none" x="1933" y="2649" width="6195" height="16373"/>
       <path fill="rgb(168,113,68)" stroke="none" d="M 5778,11556 C 6838,10300 7661,8914 7995,7274 8093,6792 8157,6299 8112,5812 8025,4805 7495,3890 6822,3168 7024,3602 7099,4086 7066,4565 7060,4556 7055,4544 7049,4532 6979,4136 6838,3752 6608,3429 6350,3062 5971,2780 5548,2683 5696,2777 5814,2909 5910,3065 4476,1999 3067,3317 3067,3317 1027,5281 3465,7506 3465,7506 3791,7870 4021,8213 4178,8533 3968,8316 3695,8166 3406,8163 3701,8301 3900,8597 4057,8894 4195,9155 4313,9431 4360,9722 4386,9871 4391,10027 4374,10177 4147,10975 3493,11409 3493,11409 1913,12850 1933,14333 1933,14333 1933,18926 6140,19020 6140,19020 L 6070,18550 C 2635,15565 5171,12349 5171,12349 5449,11946 5778,11556 5778,11556 Z"/>
      </g>
     </g>
     <g class="com.sun.star.drawing.ClosedBezierShape">
      <g id="id25">
       <rect class="BoundingBox" stroke="none" fill="none" x="2143" y="26776" width="693" height="745"/>
       <path fill="rgb(149,149,181)" stroke="none" d="M 2321,27248 C 2321,27284 2328,27315 2341,27340 2357,27366 2378,27385 2402,27397 2429,27411 2457,27417 2488,27417 2520,27417 2547,27411 2572,27399 2599,27387 2619,27368 2632,27342 2648,27316 2657,27285 2657,27248 2657,27210 2648,27179 2632,27153 2619,27128 2599,27109 2572,27095 2547,27081 2517,27074 2486,27074 2454,27074 2425,27081 2400,27095 2375,27110 2355,27129 2341,27155 2328,27181 2321,27212 2321,27248 Z M 2666,27443 L 2666,27431 C 2641,27452 2619,27469 2596,27481 2574,27495 2549,27503 2522,27510 2495,27517 2466,27520 2434,27520 2391,27520 2353,27513 2317,27500 2281,27486 2249,27467 2224,27441 2197,27417 2177,27387 2163,27354 2150,27320 2143,27282 2143,27243 2143,27158 2170,27093 2224,27045 2278,26999 2348,26977 2436,26977 2486,26977 2529,26982 2565,26996 2599,27009 2632,27030 2666,27057 L 2666,26860 C 2666,26833 2673,26812 2689,26797 2702,26783 2723,26776 2750,26776 2777,26776 2797,26783 2813,26795 2826,26809 2835,26827 2835,26853 L 2835,27443 C 2835,27469 2826,27488 2811,27501 2793,27513 2775,27520 2750,27520 2725,27520 2705,27513 2689,27500 2673,27488 2666,27469 2666,27443 Z"/>
      </g>
     </g>
     <g class="com.sun.star.drawing.ClosedBezierShape">
      <g id="id26">
       <rect class="BoundingBox" stroke="none" fill="none" x="2919" y="26975" width="671" height="546"/>
       <path fill="rgb(149,149,181)" stroke="none" d="M 3097,27203 L 3420,27203 C 3415,27159 3397,27124 3368,27102 3341,27078 3302,27068 3257,27068 3212,27068 3176,27078 3149,27102 3120,27124 3104,27159 3097,27203 Z M 3445,27282 L 3097,27282 C 3097,27311 3106,27339 3122,27363 3138,27385 3158,27402 3185,27414 3210,27426 3239,27431 3271,27431 3291,27431 3311,27430 3327,27426 3345,27423 3361,27416 3381,27409 3397,27400 3413,27392 3427,27383 3440,27373 3458,27361 3478,27345 3487,27340 3501,27337 3519,27337 3537,27337 3551,27340 3562,27347 3573,27356 3578,27366 3578,27380 3578,27392 3573,27405 3560,27423 3548,27438 3528,27454 3503,27469 3478,27484 3447,27496 3408,27505 3368,27515 3325,27520 3275,27520 3163,27520 3075,27496 3011,27447 2948,27399 2919,27332 2919,27248 2919,27207 2926,27171 2942,27136 2957,27102 2980,27073 3009,27049 3039,27025 3075,27006 3117,26994 3163,26980 3210,26975 3262,26975 3332,26975 3393,26985 3442,27008 3492,27030 3528,27057 3553,27093 3578,27128 3589,27164 3589,27200 3589,27234 3575,27256 3551,27267 3526,27277 3490,27282 3445,27282 Z"/>
      </g>
     </g>
     <g class="com.sun.star.drawing.ClosedBezierShape">
      <g id="id27">
       <rect class="BoundingBox" stroke="none" fill="none" x="3640" y="26975" width="607" height="546"/>
       <path fill="rgb(149,149,181)" stroke="none" d="M 4246,27345 C 4246,27383 4234,27414 4209,27440 4187,27467 4151,27486 4106,27500 4058,27514 4002,27520 3936,27520 3873,27520 3819,27514 3772,27498 3727,27484 3693,27466 3673,27443 3650,27421 3641,27399 3641,27376 3641,27363 3648,27349 3661,27339 3675,27328 3693,27323 3713,27323 3731,27323 3745,27327 3756,27333 3765,27340 3774,27351 3783,27363 3801,27387 3826,27404 3851,27416 3876,27428 3909,27433 3955,27433 3988,27433 4018,27428 4040,27416 4063,27404 4074,27390 4074,27375 4074,27352 4063,27335 4038,27323 4015,27313 3977,27303 3923,27292 3862,27282 3812,27270 3774,27256 3736,27244 3704,27227 3682,27205 3659,27184 3648,27159 3648,27129 3648,27102 3659,27078 3679,27054 3700,27030 3731,27011 3772,26996 3817,26982 3864,26975 3923,26975 3968,26975 4009,26978 4047,26985 4083,26992 4112,27002 4137,27014 4162,27026 4180,27040 4191,27056 4205,27069 4212,27083 4212,27098 4212,27114 4205,27126 4191,27136 4178,27145 4158,27150 4133,27150 4115,27150 4099,27147 4088,27138 4074,27131 4061,27119 4045,27104 4031,27090 4015,27080 3997,27073 3979,27064 3955,27061 3923,27061 3891,27061 3864,27066 3844,27076 3824,27086 3812,27098 3812,27114 3812,27128 3819,27140 3835,27148 3851,27159 3871,27165 3898,27171 3925,27177 3961,27184 4006,27193 4061,27203 4106,27217 4139,27231 4176,27244 4200,27261 4218,27280 4236,27299 4246,27321 4246,27345 Z"/>
      </g>
     </g>
     <g class="com.sun.star.drawing.ClosedBezierShape">
      <g id="id28">
       <rect class="BoundingBox" stroke="none" fill="none" x="4333" y="26781" width="179" height="740"/>
       <path fill="rgb(149,149,181)" stroke="none" d="M 4511,27052 L 4511,27440 C 4511,27465 4502,27486 4486,27500 4471,27513 4448,27520 4423,27520 4396,27520 4376,27513 4360,27500 4342,27486 4333,27465 4333,27440 L 4333,27057 C 4333,27030 4342,27011 4360,26997 4376,26983 4396,26977 4423,26977 4448,26977 4471,26983 4486,26997 4502,27011 4511,27028 4511,27052 Z M 4425,26915 C 4401,26915 4378,26908 4362,26896 4342,26884 4333,26868 4333,26846 4333,26827 4342,26812 4362,26800 4380,26788 4401,26781 4425,26781 4448,26781 4468,26788 4484,26798 4502,26810 4511,26826 4511,26846 4511,26868 4502,26884 4486,26896 4468,26908 4448,26915 4425,26915 Z"/>
      </g>
     </g>
     <g class="com.sun.star.drawing.ClosedBezierShape">
      <g id="id29">
       <rect class="BoundingBox" stroke="none" fill="none" x="4595" y="26975" width="689" height="745"/>
       <path fill="rgb(149,149,181)" stroke="none" d="M 4771,27244 C 4771,27299 4789,27339 4818,27368 4850,27395 4890,27409 4940,27409 4969,27409 4997,27402 5024,27392 5048,27380 5071,27361 5087,27337 5103,27313 5112,27284 5112,27249 5112,27193 5096,27152 5064,27121 5033,27090 4990,27074 4938,27074 4888,27074 4848,27090 4818,27119 4787,27148 4771,27189 4771,27244 Z M 5283,27073 L 5283,27464 C 5283,27507 5276,27546 5263,27577 5251,27610 5231,27637 5204,27658 5177,27678 5141,27694 5096,27704 5051,27714 4997,27719 4929,27719 4870,27719 4816,27712 4764,27699 4717,27687 4681,27670 4656,27649 4629,27628 4615,27608 4615,27587 4615,27570 4624,27556 4638,27546 4654,27536 4672,27531 4692,27531 4717,27531 4739,27539 4760,27556 4769,27567 4780,27575 4791,27584 4800,27592 4812,27601 4823,27606 4836,27613 4850,27618 4868,27622 4886,27623 4904,27625 4927,27625 4972,27625 5008,27622 5033,27611 5057,27601 5075,27589 5087,27570 5096,27553 5103,27536 5105,27515 5105,27495 5107,27464 5107,27419 5080,27448 5048,27471 5015,27486 4978,27502 4936,27508 4888,27508 4830,27508 4778,27496 4730,27474 4687,27452 4654,27419 4629,27378 4606,27337 4595,27289 4595,27236 4595,27193 4602,27157 4615,27124 4629,27093 4651,27066 4676,27044 4703,27021 4735,27004 4769,26992 4807,26982 4845,26977 4886,26977 4936,26977 4978,26984 5015,26997 5053,27013 5087,27035 5118,27066 L 5118,27049 C 5118,27025 5125,27008 5141,26994 5154,26982 5175,26975 5197,26975 5231,26975 5254,26984 5265,27001 5276,27018 5283,27042 5283,27073 Z"/>
      </g>
     </g>
     <g class="com.sun.star.drawing.ClosedBezierShape">
      <g id="id30">
       <rect class="BoundingBox" stroke="none" fill="none" x="5393" y="26975" width="631" height="546"/>
       <path fill="rgb(149,149,181)" stroke="none" d="M 5562,27049 L 5562,27066 C 5591,27035 5625,27011 5664,26997 5700,26982 5743,26975 5790,26975 5835,26975 5878,26984 5914,26997 5950,27013 5977,27035 5995,27062 6007,27080 6016,27097 6018,27116 6022,27135 6022,27159 6022,27189 L 6022,27440 C 6022,27466 6016,27486 6000,27500 5982,27514 5961,27520 5937,27520 5910,27520 5889,27514 5873,27500 5855,27486 5849,27466 5849,27440 L 5849,27217 C 5849,27171 5840,27136 5824,27114 5808,27090 5776,27078 5727,27078 5695,27078 5668,27085 5641,27100 5616,27114 5596,27133 5585,27159 5576,27177 5571,27217 5571,27272 L 5571,27440 C 5571,27466 5564,27486 5546,27500 5531,27514 5510,27520 5483,27520 5458,27520 5438,27514 5418,27500 5402,27486 5393,27466 5393,27440 L 5393,27050 C 5393,27025 5402,27006 5416,26994 5434,26982 5452,26975 5479,26975 5495,26975 5508,26978 5519,26984 5533,26989 5542,26997 5551,27008 5558,27020 5562,27033 5562,27049 Z"/>
      </g>
     </g>
     <g class="com.sun.star.drawing.ClosedBezierShape">
      <g id="id31">
       <rect class="BoundingBox" stroke="none" fill="none" x="6106" y="26975" width="672" height="546"/>
       <path fill="rgb(149,149,181)" stroke="none" d="M 6284,27203 L 6604,27203 C 6600,27159 6584,27124 6555,27102 6528,27078 6489,27068 6444,27068 6401,27068 6365,27078 6336,27102 6309,27124 6291,27159 6284,27203 Z M 6629,27282 L 6284,27282 C 6286,27311 6293,27339 6309,27363 6325,27385 6345,27402 6372,27414 6397,27426 6426,27431 6458,27431 6478,27431 6498,27430 6514,27426 6532,27423 6550,27416 6566,27409 6582,27400 6598,27392 6611,27383 6625,27373 6643,27361 6665,27345 6674,27340 6686,27337 6704,27337 6724,27337 6738,27340 6749,27347 6760,27356 6767,27366 6767,27380 6767,27392 6760,27405 6747,27423 6735,27438 6713,27454 6688,27469 6663,27484 6632,27496 6593,27505 6555,27515 6512,27520 6462,27520 6350,27520 6262,27496 6198,27447 6138,27399 6106,27332 6106,27248 6106,27207 6113,27171 6129,27136 6144,27102 6167,27073 6196,27049 6226,27025 6262,27006 6307,26994 6350,26980 6397,26975 6451,26975 6519,26975 6577,26985 6627,27008 6677,27030 6715,27057 6740,27093 6765,27128 6776,27164 6776,27200 6776,27234 6765,27256 6738,27267 6711,27277 6674,27282 6629,27282 Z"/>
      </g>
     </g>
     <g class="com.sun.star.drawing.ClosedBezierShape">
      <g id="id32">
       <rect class="BoundingBox" stroke="none" fill="none" x="6823" y="26776" width="692" height="745"/>
       <path fill="rgb(149,149,181)" stroke="none" d="M 7001,27248 C 7001,27284 7010,27315 7024,27340 7040,27366 7060,27385 7085,27397 7112,27411 7139,27417 7170,27417 7200,27417 7229,27411 7254,27399 7279,27387 7301,27368 7315,27342 7331,27316 7337,27285 7337,27248 7337,27210 7331,27179 7315,27153 7301,27128 7279,27109 7254,27095 7227,27081 7200,27074 7168,27074 7137,27074 7107,27081 7082,27095 7058,27110 7037,27129 7024,27155 7008,27181 7001,27212 7001,27248 Z M 7349,27443 L 7349,27431 C 7324,27452 7301,27469 7279,27481 7256,27495 7229,27503 7204,27510 7177,27517 7148,27520 7116,27520 7073,27520 7035,27513 6999,27500 6963,27486 6931,27467 6904,27441 6877,27417 6857,27387 6843,27354 6830,27320 6823,27282 6823,27243 6823,27158 6850,27093 6904,27045 6961,26999 7031,26977 7118,26977 7168,26977 7211,26982 7247,26996 7281,27009 7315,27030 7349,27057 L 7349,26860 C 7349,26833 7355,26812 7369,26797 7385,26783 7405,26776 7432,26776 7457,26776 7477,26783 7493,26795 7506,26809 7513,26827 7513,26853 L 7513,27443 C 7513,27469 7506,27488 7491,27501 7475,27513 7455,27520 7432,27520 7407,27520 7387,27513 7371,27500 7355,27488 7349,27469 7349,27443 Z"/>
      </g>
     </g>
     <g class="com.sun.star.drawing.ClosedBezierShape">
      <g id="id33">
       <rect class="BoundingBox" stroke="none" fill="none" x="7898" y="26776" width="690" height="745"/>
       <path fill="rgb(149,149,181)" stroke="none" d="M 8073,27251 C 8073,27304 8088,27345 8120,27375 8154,27402 8194,27417 8249,27417 8294,27417 8332,27402 8364,27373 8395,27344 8411,27303 8411,27248 8411,27210 8404,27181 8391,27155 8377,27129 8359,27110 8334,27095 8310,27081 8282,27074 8249,27074 8215,27074 8183,27081 8156,27095 8131,27110 8111,27129 8095,27157 8079,27182 8073,27213 8073,27251 Z M 8064,26853 L 8064,27057 C 8097,27032 8131,27011 8165,26997 8199,26984 8244,26977 8296,26977 8355,26977 8404,26987 8449,27008 8492,27028 8526,27059 8551,27098 8576,27140 8587,27186 8587,27243 8587,27284 8580,27321 8567,27354 8553,27388 8535,27417 8508,27443 8483,27467 8452,27486 8416,27500 8377,27513 8337,27520 8294,27520 8267,27520 8242,27519 8217,27513 8190,27508 8170,27501 8154,27493 8138,27486 8122,27477 8111,27469 8100,27460 8084,27448 8064,27431 L 8064,27443 C 8064,27469 8057,27488 8041,27501 8025,27513 8005,27520 7980,27520 7955,27520 7935,27513 7922,27501 7906,27488 7899,27469 7899,27443 L 7899,26858 C 7899,26831 7906,26810 7919,26797 7935,26783 7955,26776 7980,26776 8007,26776 8028,26783 8043,26797 8057,26809 8064,26827 8064,26853 Z"/>
      </g>
     </g>
     <g class="com.sun.star.drawing.ClosedBezierShape">
      <g id="id34">
       <rect class="BoundingBox" stroke="none" fill="none" x="8574" y="26975" width="669" height="745"/>
       <path fill="rgb(149,149,181)" stroke="none" d="M 8813,27538 L 8831,27507 8615,27092 C 8601,27068 8594,27050 8594,27038 8594,27028 8599,27018 8606,27008 8612,26997 8624,26990 8637,26984 8651,26978 8664,26975 8680,26975 8705,26975 8723,26982 8736,26994 8750,27006 8761,27023 8770,27045 L 8919,27376 9061,27069 C 9072,27044 9082,27025 9091,27011 9100,26997 9109,26987 9120,26982 9129,26977 9145,26975 9163,26975 9179,26975 9192,26978 9203,26984 9215,26989 9226,26996 9233,27004 9237,27014 9242,27023 9242,27033 9239,27040 9237,27049 9233,27061 9228,27071 9224,27083 9219,27095 L 8987,27553 C 8969,27594 8948,27625 8930,27647 8910,27671 8885,27688 8854,27700 8822,27712 8782,27719 8727,27719 8678,27719 8637,27714 8612,27706 8588,27697 8574,27682 8574,27659 8574,27644 8581,27632 8592,27623 8603,27616 8624,27611 8646,27611 8655,27611 8664,27613 8673,27615 8685,27616 8696,27618 8703,27618 8723,27618 8739,27615 8750,27611 8763,27606 8772,27598 8782,27587 8791,27575 8802,27558 8813,27538 Z"/>
      </g>
     </g>
     <g class="com.sun.star.drawing.ClosedBezierShape">
      <g id="id35">
       <rect class="BoundingBox" stroke="none" fill="none" x="11274" y="26776" width="515" height="745"/>
       <path fill="rgb(149,149,181)" stroke="none" d="M 11362,26987 L 11403,26987 11403,26946 C 11403,26905 11409,26872 11425,26846 11439,26822 11461,26803 11495,26793 11529,26781 11576,26776 11635,26776 11736,26776 11788,26795 11788,26833 11788,26846 11784,26857 11772,26865 11761,26874 11750,26879 11734,26879 11727,26879 11716,26877 11698,26875 11682,26874 11669,26872 11657,26872 11624,26872 11603,26879 11594,26894 11588,26908 11581,26929 11581,26954 L 11581,26987 11624,26987 C 11691,26987 11725,27002 11725,27033 11725,27054 11716,27068 11698,27074 11680,27080 11655,27083 11624,27083 L 11581,27083 11581,27440 C 11581,27465 11574,27486 11554,27500 11538,27513 11518,27520 11491,27520 11466,27520 11445,27513 11427,27500 11412,27486 11403,27465 11403,27440 L 11403,27083 11355,27083 C 11328,27083 11308,27080 11294,27069 11281,27061 11274,27049 11274,27035 11274,27002 11303,26987 11362,26987 Z"/>
      </g>
     </g>
     <g class="com.sun.star.drawing.ClosedBezierShape">
      <g id="id36">
       <rect class="BoundingBox" stroke="none" fill="none" x="11761" y="26975" width="486" height="546"/>
       <path fill="rgb(149,149,181)" stroke="none" d="M 11937,27327 L 11937,27440 C 11937,27466 11928,27486 11912,27500 11894,27514 11874,27520 11849,27520 11822,27520 11802,27514 11786,27500 11770,27486 11761,27466 11761,27440 L 11761,27064 C 11761,27004 11790,26975 11847,26975 11876,26975 11896,26982 11910,26996 11923,27009 11930,27030 11932,27057 11953,27030 11973,27009 11996,26996 12020,26982 12050,26975 12086,26975 12124,26975 12160,26982 12194,26996 12230,27009 12246,27028 12246,27052 12246,27068 12239,27081 12223,27092 12210,27104 12194,27109 12176,27109 12169,27109 12153,27105 12129,27098 12104,27093 12084,27090 12063,27090 12038,27090 12018,27095 12000,27105 11982,27116 11969,27131 11959,27152 11953,27172 11946,27196 11941,27225 11939,27253 11937,27287 11937,27327 Z"/>
      </g>
     </g>
     <g class="com.sun.star.drawing.ClosedBezierShape">
      <g id="id37">
       <rect class="BoundingBox" stroke="none" fill="none" x="12221" y="26973" width="673" height="548"/>
       <path fill="rgb(149,149,181)" stroke="none" d="M 12401,27203 L 12719,27203 C 12715,27158 12699,27124 12672,27102 12643,27078 12607,27067 12562,27067 12516,27067 12480,27078 12453,27102 12424,27124 12408,27158 12401,27203 Z M 12749,27282 L 12401,27282 C 12401,27311 12410,27338 12426,27361 12442,27385 12462,27402 12487,27414 12514,27426 12544,27431 12575,27431 12595,27431 12613,27429 12632,27426 12650,27422 12665,27415 12683,27409 12699,27400 12713,27391 12731,27383 12744,27373 12762,27361 12783,27345 12792,27340 12805,27337 12821,27337 12839,27337 12855,27340 12866,27347 12877,27355 12882,27366 12882,27379 12882,27391 12875,27405 12864,27422 12850,27438 12832,27453 12807,27469 12783,27482 12751,27496 12710,27505 12672,27515 12629,27520 12580,27520 12467,27520 12379,27496 12316,27446 12253,27398 12221,27331 12221,27247 12221,27206 12230,27169 12246,27136 12259,27102 12282,27072 12313,27048 12343,27024 12379,27006 12422,26994 12465,26980 12514,26973 12566,26973 12636,26973 12695,26985 12747,27007 12794,27028 12832,27057 12855,27091 12880,27127 12893,27163 12893,27199 12893,27234 12880,27256 12855,27266 12830,27277 12794,27282 12749,27282 Z"/>
      </g>
     </g>
     <g class="com.sun.star.drawing.ClosedBezierShape">
      <g id="id38">
       <rect class="BoundingBox" stroke="none" fill="none" x="12951" y="26973" width="674" height="548"/>
       <path fill="rgb(149,149,181)" stroke="none" d="M 13132,27203 L 13455,27203 C 13450,27158 13435,27124 13405,27102 13376,27078 13338,27067 13293,27067 13247,27067 13211,27078 13184,27102 13157,27124 13139,27158 13132,27203 Z M 13480,27282 L 13132,27282 C 13135,27311 13141,27338 13157,27361 13173,27385 13193,27402 13220,27414 13245,27426 13275,27431 13306,27431 13326,27431 13347,27429 13363,27426 13381,27422 13401,27415 13417,27409 13432,27400 13448,27391 13462,27383 13475,27373 13493,27361 13516,27345 13525,27340 13536,27337 13554,27337 13572,27337 13586,27340 13597,27347 13608,27355 13613,27366 13613,27379 13613,27391 13608,27405 13595,27422 13584,27438 13563,27453 13538,27469 13514,27482 13482,27496 13444,27505 13408,27515 13360,27520 13311,27520 13198,27520 13110,27496 13047,27446 12984,27398 12952,27331 12952,27247 12952,27206 12961,27169 12977,27136 12993,27102 13015,27072 13044,27048 13074,27024 13110,27006 13153,26994 13198,26980 13245,26973 13297,26973 13367,26973 13428,26985 13478,27007 13527,27028 13563,27057 13588,27091 13613,27127 13624,27163 13624,27199 13624,27234 13611,27256 13586,27266 13561,27277 13525,27282 13480,27282 Z"/>
      </g>
     </g>
     <g class="com.sun.star.drawing.ClosedBezierShape">
      <g id="id39">
       <rect class="BoundingBox" stroke="none" fill="none" x="13696" y="26975" width="691" height="745"/>
       <path fill="rgb(149,149,181)" stroke="none" d="M 14208,27246 C 14208,27208 14199,27179 14185,27153 14172,27128 14152,27109 14127,27095 14102,27081 14073,27074 14043,27074 13996,27074 13953,27090 13922,27119 13888,27148 13870,27191 13870,27249 13870,27301 13888,27344 13919,27373 13953,27402 13994,27417 14043,27417 14073,27417 14100,27411 14125,27399 14149,27385 14170,27366 14185,27340 14199,27315 14208,27282 14208,27246 Z M 13863,27050 L 13863,27066 C 13894,27035 13931,27013 13964,26997 14001,26984 14041,26975 14086,26975 14140,26975 14190,26987 14235,27008 14282,27028 14316,27061 14343,27100 14370,27141 14386,27189 14386,27248 14386,27289 14377,27327 14361,27361 14346,27395 14325,27424 14298,27448 14271,27471 14240,27490 14204,27502 14167,27514 14129,27520 14086,27520 14037,27520 13994,27512 13960,27496 13926,27483 13892,27459 13863,27430 L 13863,27630 C 13863,27688 13834,27719 13777,27719 13746,27719 13723,27711 13712,27695 13701,27680 13696,27659 13696,27630 L 13696,27050 C 13696,27025 13703,27006 13719,26994 13732,26982 13752,26975 13777,26975 13802,26975 13822,26982 13838,26994 13854,27008 13863,27025 13863,27050 Z"/>
      </g>
     </g>
     <g class="com.sun.star.drawing.ClosedBezierShape">
      <g id="id40">
       <rect class="BoundingBox" stroke="none" fill="none" x="14472" y="26781" width="179" height="740"/>
       <path fill="rgb(149,149,181)" stroke="none" d="M 14650,27052 L 14650,27440 C 14650,27465 14641,27486 14625,27500 14607,27513 14585,27520 14560,27520 14533,27520 14513,27513 14497,27500 14481,27484 14472,27465 14472,27440 L 14472,27055 C 14472,27030 14481,27009 14497,26997 14513,26983 14533,26977 14560,26977 14585,26977 14607,26983 14625,26997 14641,27009 14650,27028 14650,27052 Z M 14560,26915 C 14535,26915 14515,26908 14499,26896 14481,26884 14472,26868 14472,26846 14472,26827 14481,26812 14499,26800 14517,26788 14537,26781 14560,26781 14585,26781 14603,26786 14623,26798 14641,26808 14650,26826 14650,26846 14650,26867 14641,26884 14625,26894 14607,26908 14585,26915 14560,26915 Z"/>
      </g>
     </g>
     <g class="com.sun.star.drawing.ClosedBezierShape">
      <g id="id41">
       <rect class="BoundingBox" stroke="none" fill="none" x="14788" y="26776" width="610" height="745"/>
       <path fill="rgb(149,149,181)" stroke="none" d="M 15214,27459 L 15061,27263 14964,27332 14964,27440 C 14964,27465 14955,27486 14937,27500 14921,27513 14899,27520 14876,27520 14849,27520 14829,27513 14813,27500 14797,27486 14788,27465 14788,27440 L 14788,26867 C 14788,26838 14797,26815 14811,26798 14826,26783 14849,26776 14876,26776 14903,26776 14926,26783 14941,26797 14957,26810 14964,26833 14964,26858 L 14964,27184 15162,27026 C 15187,27006 15205,26992 15219,26985 15232,26978 15246,26975 15266,26975 15286,26975 15305,26980 15320,26990 15334,27001 15343,27014 15343,27030 15343,27050 15318,27076 15271,27109 L 15178,27174 15359,27392 C 15370,27407 15381,27419 15386,27428 15395,27436 15397,27445 15397,27452 15397,27472 15390,27489 15372,27501 15356,27513 15336,27520 15311,27520 15291,27520 15273,27517 15262,27507 15250,27498 15235,27483 15214,27459 Z"/>
      </g>
     </g>
     <g class="com.sun.star.drawing.ClosedBezierShape">
      <g id="id42">
       <rect class="BoundingBox" stroke="none" fill="none" x="15499" y="27371" width="197" height="150"/>
       <path fill="rgb(149,149,181)" stroke="none" d="M 15601,27520 C 15573,27520 15551,27513 15531,27500 15513,27486 15499,27467 15499,27445 15499,27424 15513,27407 15531,27393 15549,27378 15571,27371 15598,27371 15625,27371 15648,27378 15668,27392 15686,27407 15695,27424 15695,27445 15695,27467 15686,27486 15668,27500 15648,27513 15625,27520 15601,27520 Z"/>
      </g>
     </g>
     <g class="com.sun.star.drawing.ClosedBezierShape">
      <g id="id43">
       <rect class="BoundingBox" stroke="none" fill="none" x="15808" y="26973" width="669" height="548"/>
       <path fill="rgb(149,149,181)" stroke="none" d="M 16476,27354 C 16476,27371 16469,27390 16453,27409 16440,27428 16419,27445 16392,27462 16365,27479 16331,27493 16291,27503 16250,27513 16205,27520 16153,27520 16045,27520 15959,27494 15898,27446 15837,27398 15808,27335 15808,27253 15808,27196 15822,27148 15849,27105 15878,27064 15919,27031 15970,27007 16022,26985 16088,26973 16160,26973 16205,26973 16248,26978 16286,26988 16322,26999 16356,27012 16381,27028 16408,27043 16428,27060 16442,27079 16455,27096 16464,27114 16464,27131 16464,27146 16455,27160 16440,27170 16424,27182 16406,27187 16383,27187 16367,27187 16356,27184 16347,27179 16336,27174 16327,27163 16313,27151 16293,27126 16270,27107 16246,27095 16223,27083 16194,27076 16158,27076 16106,27076 16063,27091 16031,27122 16000,27153 15984,27196 15984,27251 15984,27277 15988,27299 15995,27321 16004,27342 16016,27359 16031,27374 16047,27390 16065,27400 16088,27409 16110,27415 16133,27419 16160,27419 16196,27419 16225,27414 16250,27402 16275,27388 16297,27369 16318,27343 16329,27330 16340,27318 16352,27309 16365,27301 16379,27295 16397,27295 16419,27295 16437,27302 16451,27314 16467,27328 16476,27340 16476,27354 Z"/>
      </g>
     </g>
     <g class="com.sun.star.drawing.ClosedBezierShape">
      <g id="id44">
       <rect class="BoundingBox" stroke="none" fill="none" x="16532" y="26975" width="704" height="546"/>
       <path fill="rgb(149,149,181)" stroke="none" d="M 17055,27248 C 17055,27193 17040,27150 17008,27119 16976,27088 16934,27074 16879,27074 16846,27074 16816,27081 16789,27093 16762,27107 16744,27128 16728,27153 16715,27181 16708,27213 16708,27248 16708,27284 16715,27315 16728,27340 16742,27366 16762,27387 16789,27400 16814,27414 16846,27421 16879,27421 16934,27421 16976,27405 17008,27375 17040,27344 17055,27303 17055,27248 Z M 17234,27248 C 17234,27289 17224,27325 17206,27359 17191,27392 17168,27421 17137,27445 17105,27469 17069,27488 17026,27502 16981,27514 16934,27520 16879,27520 16827,27520 16780,27514 16737,27500 16694,27488 16656,27469 16627,27445 16595,27421 16570,27392 16555,27359 16539,27325 16532,27289 16532,27248 16532,27207 16539,27169 16555,27136 16573,27102 16595,27073 16627,27049 16656,27025 16692,27008 16737,26994 16780,26982 16827,26975 16879,26975 16934,26975 16981,26982 17026,26994 17069,27008 17105,27026 17137,27050 17168,27074 17191,27104 17206,27136 17224,27171 17234,27207 17234,27248 Z"/>
      </g>
     </g>
     <g class="com.sun.star.drawing.ClosedBezierShape">
      <g id="id45">
       <rect class="BoundingBox" stroke="none" fill="none" x="17305" y="26975" width="1012" height="546"/>
       <path fill="rgb(149,149,181)" stroke="none" d="M 17903,27258 L 17903,27436 C 17903,27464 17896,27484 17878,27500 17862,27514 17840,27520 17813,27520 17785,27520 17763,27514 17745,27500 17729,27484 17720,27464 17720,27436 L 17720,27224 C 17720,27188 17720,27162 17716,27143 17713,27124 17704,27109 17691,27097 17677,27085 17657,27080 17628,27080 17571,27080 17533,27093 17515,27124 17497,27153 17488,27198 17488,27256 L 17488,27436 C 17488,27464 17479,27484 17463,27500 17445,27514 17425,27520 17397,27520 17370,27520 17348,27514 17332,27500 17314,27484 17305,27464 17305,27436 L 17305,27052 C 17305,27026 17314,27008 17330,26994 17343,26982 17364,26975 17388,26975 17413,26975 17434,26982 17449,26994 17465,27006 17474,27023 17474,27044 L 17474,27057 C 17503,27028 17537,27009 17571,26996 17607,26982 17646,26975 17688,26975 17731,26975 17772,26982 17803,26996 17835,27009 17862,27030 17882,27057 17912,27030 17943,27009 17977,26996 18011,26982 18049,26975 18090,26975 18140,26975 18180,26984 18216,26997 18250,27011 18275,27032 18293,27059 18309,27083 18316,27121 18316,27174 L 18316,27436 C 18316,27464 18307,27484 18291,27500 18275,27514 18252,27520 18225,27520 18198,27520 18176,27514 18158,27500 18142,27484 18133,27464 18133,27436 L 18133,27212 C 18133,27181 18131,27159 18128,27140 18126,27122 18117,27109 18103,27097 18088,27085 18067,27080 18038,27080 18016,27080 17993,27085 17973,27095 17950,27105 17934,27119 17923,27136 17910,27160 17903,27200 17903,27258 Z"/>
      </g>
     </g>
     <g class="com.sun.star.drawing.ClosedBezierShape">
      <g id="id46">
       <rect class="BoundingBox" stroke="none" fill="none" x="9715" y="27213" width="1" height="3"/>
       <path fill="rgb(149,149,181)" stroke="none" d="M 9715,27215 C 9715,27213 9715,27213 9715,27213 L 9715,27215 Z"/>
      </g>
     </g>
     <g class="com.sun.star.drawing.ClosedBezierShape">
      <g id="id47">
       <rect class="BoundingBox" stroke="none" fill="none" x="9716" y="27220" width="11" height="40"/>
       <path fill="rgb(149,149,181)" stroke="none" d="M 9726,27259 C 9722,27246 9719,27232 9717,27220 9719,27232 9722,27247 9726,27259 Z"/>
      </g>
     </g>
     <g class="com.sun.star.drawing.ClosedBezierShape">
      <g id="id48">
       <rect class="BoundingBox" stroke="none" fill="none" x="9781" y="27379" width="3" height="3"/>
       <path fill="rgb(149,149,181)" stroke="none" d="M 9783,27381 C 9783,27381 9783,27379 9781,27379 9783,27379 9783,27381 9783,27381 Z"/>
      </g>
     </g>
     <g class="com.sun.star.drawing.ClosedBezierShape">
      <g id="id49">
       <rect class="BoundingBox" stroke="none" fill="none" x="9772" y="27366" width="10" height="10"/>
       <path fill="rgb(149,149,181)" stroke="none" d="M 9781,27375 C 9781,27373 9777,27368 9772,27366 9777,27368 9781,27373 9781,27375 Z"/>
      </g>
     </g>
     <g class="com.sun.star.drawing.ClosedBezierShape">
      <g id="id50">
       <rect class="BoundingBox" stroke="none" fill="none" x="9740" y="27304" width="37" height="63"/>
       <path fill="rgb(149,149,181)" stroke="none" d="M 9740,27304 C 9751,27325 9763,27347 9776,27366 9763,27347 9751,27325 9740,27304 Z"/>
      </g>
     </g>
     <g class="com.sun.star.drawing.ClosedBezierShape">
      <g id="id51">
       <rect class="BoundingBox" stroke="none" fill="none" x="10081" y="26526" width="417" height="216"/>
       <path fill="rgb(149,149,181)" stroke="none" d="M 10397,26704 C 10431,26704 10455,26705 10487,26709 L 10496,26668 C 10496,26668 10413,26649 10309,26656 L 10300,26635 C 10334,26630 10358,26608 10358,26582 10358,26551 10325,26527 10286,26527 10246,26527 10214,26551 10214,26582 10214,26608 10239,26630 10270,26635 L 10279,26659 C 10169,26669 10081,26705 10081,26705 L 10097,26741 C 10164,26724 10221,26714 10275,26709 10327,26705 10365,26704 10397,26704 Z"/>
      </g>
     </g>
     <g class="com.sun.star.drawing.ClosedBezierShape">
      <g id="id52">
       <rect class="BoundingBox" stroke="none" fill="none" x="9472" y="26863" width="321" height="280"/>
       <path fill="rgb(149,149,181)" stroke="none" d="M 9783,26901 L 9786,26901 C 9788,26897 9790,26896 9792,26892 L 9772,26882 9738,26863 C 9736,26865 9682,26901 9641,26968 9639,26966 9637,26964 9634,26962 9623,26952 9605,26947 9583,26947 9569,26947 9560,26944 9553,26940 9560,26933 9562,26926 9562,26918 9562,26899 9542,26884 9517,26884 9492,26884 9472,26899 9472,26918 9472,26937 9492,26952 9517,26952 9522,26952 9526,26952 9528,26952 9540,26961 9558,26969 9583,26969 9596,26969 9607,26971 9614,26976 9621,26983 9623,26993 9623,27000 9594,27062 9603,27139 9603,27139 L 9675,27141 C 9675,27113 9682,27064 9702,27026 9738,26949 9783,26902 9783,26901 Z"/>
      </g>
     </g>
     <g class="com.sun.star.drawing.ClosedBezierShape">
      <g id="id53">
       <rect class="BoundingBox" stroke="none" fill="none" x="10753" y="26746" width="317" height="276"/>
       <path fill="rgb(149,149,181)" stroke="none" d="M 11024,26747 C 10999,26747 10976,26762 10976,26783 10976,26785 10979,26788 10979,26792 10967,26798 10956,26812 10956,26833 10956,26843 10954,26850 10945,26855 10940,26858 10933,26860 10927,26862 10873,26805 10807,26771 10807,26771 L 10753,26812 C 10794,26840 10834,26874 10873,26915 10900,26946 10927,26984 10949,27021 L 11019,26996 C 11019,26996 10988,26936 10942,26881 10949,26879 10958,26876 10965,26870 10979,26862 10985,26848 10985,26833 10985,26821 10990,26814 10994,26809 11003,26814 11012,26817 11024,26817 11048,26817 11069,26802 11069,26783 11069,26762 11048,26747 11024,26747 Z"/>
      </g>
     </g>
     <g class="com.sun.star.drawing.ClosedBezierShape">
      <g id="id54">
       <rect class="BoundingBox" stroke="none" fill="none" x="9739" y="27167" width="1233" height="413"/>
       <path fill="rgb(149,149,181)" stroke="none" d="M 10843,27222 C 10746,27258 10588,27304 10381,27327 10299,27335 10220,27339 10148,27339 10054,27339 9970,27333 9907,27327 9832,27320 9776,27311 9740,27304 9749,27325 9760,27345 9772,27364 9772,27366 9772,27366 9774,27366 9774,27368 9776,27371 9776,27373 9778,27375 9781,27378 9781,27380 9783,27380 9783,27381 9783,27381 9803,27411 9828,27438 9855,27460 9954,27544 10054,27556 10054,27556 L 10056,27556 10058,27558 C 10058,27558 10146,27579 10281,27579 10412,27579 10541,27560 10665,27517 10760,27483 10845,27428 10888,27380 10922,27342 10945,27302 10960,27261 10967,27239 10974,27205 10969,27167 10942,27181 10899,27201 10843,27222 Z"/>
      </g>
     </g>
     <g class="com.sun.star.drawing.ClosedBezierShape">
      <g id="id55">
       <rect class="BoundingBox" stroke="none" fill="none" x="9711" y="26731" width="1248" height="567"/>
       <path fill="rgb(149,149,181)" stroke="none" d="M 10088,26880 C 10194,26880 10279,26945 10279,27024 10279,27105 10194,27172 10088,27172 9979,27172 9894,27105 9894,27024 9894,26945 9979,26880 10088,26880 Z M 10647,26884 C 10713,26884 10764,26923 10764,26973 10764,27023 10713,27064 10647,27064 10582,27064 10528,27023 10528,26973 10528,26923 10582,26884 10647,26884 Z M 9813,26918 C 9810,26921 9767,26966 9736,27035 9711,27086 9711,27161 9711,27163 9711,27180 9713,27198 9716,27215 L 9716,27216 C 9716,27218 9718,27220 9718,27222 9720,27234 9722,27246 9725,27259 9772,27268 10058,27318 10374,27285 10573,27263 10724,27218 10816,27186 10891,27156 10940,27131 10958,27119 10940,27067 10888,26983 10841,26932 10706,26784 10559,26746 10482,26736 10455,26733 10431,26731 10399,26731 10370,26731 10331,26733 10282,26736 10230,26741 10173,26750 10108,26767 10018,26791 9932,26827 9867,26873 L 9864,26875 C 9855,26882 9835,26896 9813,26918 Z"/>
      </g>
     </g>
    </g>
   </g>
  </g>
 </g>
</svg>